<?xml version="1.0" encoding="utf-8" standalone="no"?>
<!DOCTYPE svg PUBLIC "-//W3C//DTD SVG 1.1//EN"
  "http://www.w3.org/Graphics/SVG/1.1/DTD/svg11.dtd">
<svg xmlns:xlink="http://www.w3.org/1999/xlink" width="434.583638pt" height="300.684531pt" viewBox="0 0 434.583638 300.684531" xmlns="http://www.w3.org/2000/svg" version="1.1">
 <metadata>
  <rdf:RDF xmlns:dc="http://purl.org/dc/elements/1.1/" xmlns:cc="http://creativecommons.org/ns#" xmlns:rdf="http://www.w3.org/1999/02/22-rdf-syntax-ns#">
   <cc:Work>
    <dc:type rdf:resource="http://purl.org/dc/dcmitype/StillImage"/>
    <dc:date>2022-10-10T09:56:58.586829</dc:date>
    <dc:format>image/svg+xml</dc:format>
    <dc:creator>
     <cc:Agent>
      <dc:title>Matplotlib v3.5.2, https://matplotlib.org/</dc:title>
     </cc:Agent>
    </dc:creator>
   </cc:Work>
  </rdf:RDF>
 </metadata>
 <defs>
  <style type="text/css">*{stroke-linejoin: round; stroke-linecap: butt}</style>
 </defs>
 <g id="figure_1">
  <g id="patch_1">
   <path d="M 0 300.684531 
L 434.583638 300.684531 
L 434.583638 0 
L 0 0 
z
" style="fill: #ffffff"/>
  </g>
  <g id="axes_1">
   <g id="patch_2">
    <path d="M 58.61125 245.842031 
L 417.17125 245.842031 
L 417.17125 13.642031 
L 58.61125 13.642031 
z
" style="fill: #ffffff"/>
   </g>
   <g id="PolyCollection_1">
    <path d="M 60.211964 65.10796 
L 60.211964 88.723471 
L 65.014107 124.000544 
L 69.81625 106.366547 
L 74.618393 116.344718 
L 79.420536 145.273237 
L 84.222679 128.008568 
L 89.024821 132.175723 
L 93.826964 135.961093 
L 98.629107 147.085618 
L 103.43125 153.679883 
L 108.233393 159.037611 
L 113.035536 144.739397 
L 117.837679 163.116034 
L 122.639821 160.682604 
L 127.441964 161.516645 
L 132.244107 171.788439 
L 137.04625 169.81012 
L 141.848393 168.552447 
L 146.650536 173.097285 
L 151.452679 170.346163 
L 156.254821 171.19271 
L 161.056964 186.50956 
L 165.859107 172.893827 
L 170.66125 176.275605 
L 175.463393 172.413824 
L 180.265536 177.409431 
L 185.067679 178.003538 
L 189.869821 180.547846 
L 194.671964 179.614879 
L 199.474107 180.514113 
L 204.27625 186.471068 
L 209.078393 184.673287 
L 213.880536 180.754732 
L 218.682679 184.203063 
L 223.484821 184.624867 
L 228.286964 183.22345 
L 233.089107 187.591197 
L 237.89125 189.882887 
L 242.693393 186.674007 
L 247.495536 185.069943 
L 252.297679 187.656276 
L 257.099821 187.034697 
L 261.901964 188.695197 
L 266.704107 187.68411 
L 271.50625 189.092439 
L 276.308393 190.301851 
L 281.110536 191.458766 
L 285.912679 190.484821 
L 290.714821 195.831459 
L 295.516964 190.836562 
L 300.319107 194.925114 
L 305.12125 193.635807 
L 309.923393 192.778489 
L 314.725536 190.643637 
L 319.527679 196.791556 
L 324.329821 197.627867 
L 329.131964 194.8282 
L 333.934107 197.930884 
L 338.73625 197.369156 
L 343.538393 197.845505 
L 348.340536 198.313715 
L 353.142679 198.277715 
L 357.944821 199.648235 
L 362.746964 196.333598 
L 367.549107 196.366576 
L 372.35125 202.964051 
L 377.153393 198.631077 
L 381.955536 201.491157 
L 386.757679 199.978922 
L 391.559821 196.805893 
L 396.361964 202.065786 
L 401.164107 201.350548 
L 405.96625 200.232889 
L 410.768393 202.596011 
L 415.570536 204.956427 
L 420.372679 201.848973 
L 425.174821 200.082732 
L 429.976964 204.143121 
L 434.779107 204.632016 
L 439.58125 205.885654 
L 444.383393 207.780445 
L 449.185536 203.667955 
L 453.987679 203.381935 
L 458.789821 202.355911 
L 463.591964 202.642673 
L 468.394107 205.342692 
L 473.19625 206.558744 
L 477.998393 206.203489 
L 482.800536 204.272405 
L 487.602679 207.055074 
L 492.404821 207.208774 
L 497.206964 208.239078 
L 502.009107 208.199693 
L 506.81125 208.84623 
L 511.613393 210.026608 
L 516.415536 206.2021 
L 521.217679 205.123182 
L 526.019821 211.734195 
L 530.821964 209.736311 
L 535.624107 210.605818 
L 535.624107 205.196087 
L 535.624107 205.196087 
L 530.821964 204.339353 
L 526.019821 201.484636 
L 521.217679 201.888058 
L 516.415536 200.172414 
L 511.613393 200.210087 
L 506.81125 201.544711 
L 502.009107 194.27236 
L 497.206964 200.107571 
L 492.404821 200.039532 
L 487.602679 196.8859 
L 482.800536 198.440109 
L 477.998393 197.604338 
L 473.19625 199.066365 
L 468.394107 198.18377 
L 463.591964 197.227498 
L 458.789821 196.886562 
L 453.987679 193.360394 
L 449.185536 195.630003 
L 444.383393 196.462456 
L 439.58125 198.575664 
L 434.779107 193.703333 
L 429.976964 189.698359 
L 425.174821 195.18757 
L 420.372679 189.295336 
L 415.570536 196.433133 
L 410.768393 193.906533 
L 405.96625 190.662396 
L 401.164107 185.696253 
L 396.361964 191.307363 
L 391.559821 195.58004 
L 386.757679 194.645637 
L 381.955536 189.413911 
L 377.153393 185.47972 
L 372.35125 190.093578 
L 367.549107 189.412044 
L 362.746964 188.566154 
L 357.944821 186.831261 
L 353.142679 181.750284 
L 348.340536 187.656863 
L 343.538393 188.425387 
L 338.73625 185.17615 
L 333.934107 185.875604 
L 329.131964 179.434384 
L 324.329821 180.22947 
L 319.527679 182.798321 
L 314.725536 174.86591 
L 309.923393 185.113393 
L 305.12125 175.588684 
L 300.319107 181.369562 
L 295.516964 178.463537 
L 290.714821 179.381391 
L 285.912679 180.366524 
L 281.110536 179.110267 
L 276.308393 172.711982 
L 271.50625 174.86826 
L 266.704107 173.878489 
L 261.901964 176.037327 
L 257.099821 179.044853 
L 252.297679 179.878017 
L 247.495536 174.062477 
L 242.693393 176.825421 
L 237.89125 183.364485 
L 233.089107 173.475505 
L 228.286964 153.77714 
L 223.484821 165.225047 
L 218.682679 176.103952 
L 213.880536 169.208003 
L 209.078393 160.93429 
L 204.27625 168.599679 
L 199.474107 173.14086 
L 194.671964 168.373517 
L 189.869821 167.745876 
L 185.067679 146.153884 
L 180.265536 166.876505 
L 175.463393 153.090325 
L 170.66125 159.288108 
L 165.859107 163.739956 
L 161.056964 161.184066 
L 156.254821 164.253427 
L 151.452679 149.81725 
L 146.650536 148.709519 
L 141.848393 142.221537 
L 137.04625 137.204487 
L 132.244107 149.04545 
L 127.441964 123.523454 
L 122.639821 131.477849 
L 117.837679 139.607583 
L 113.035536 125.386092 
L 108.233393 116.761574 
L 103.43125 123.228282 
L 98.629107 125.898681 
L 93.826964 116.742304 
L 89.024821 97.299636 
L 84.222679 104.097923 
L 79.420536 111.447937 
L 74.618393 103.665329 
L 69.81625 86.221649 
L 65.014107 87.470404 
L 60.211964 65.10796 
z
" clip-path="url(#p910d337798)" style="fill: #808080; fill-opacity: 0.3; stroke: #808080; stroke-opacity: 0.3"/>
   </g>
   <g id="patch_3">
    <path d="M 58.61125 174.820095 
L 58.61125 -57.379905 
L 417.17125 -57.379905 
L 417.17125 174.820095 
z
" clip-path="url(#p910d337798)" style="fill: #f9f9f9; opacity: 0.5"/>
   </g>
   <g id="patch_4">
    <path d="M 58.61125 178773.546957 
L 58.61125 174.820095 
L 417.17125 174.820095 
L 417.17125 178773.546957 
z
" clip-path="url(#p910d337798)" style="fill: #b3e5fc; opacity: 0.5"/>
   </g>
   <g id="matplotlib.axis_1">
    <g id="xtick_1">
     <g id="line2d_1">
      <defs>
       <path id="mddd076f9a0" d="M 0 0 
L 0 7 
" style="stroke: #000000; stroke-width: 2"/>
      </defs>
      <g>
       <use xlink:href="#mddd076f9a0" x="92.22625" y="245.842031" style="stroke: #000000; stroke-width: 2"/>
      </g>
     </g>
     <g id="text_1">
      <!-- 25 -->
      <g transform="translate(82.216563 269.226094)scale(0.18 -0.18)">
       <defs>
        <path id="ArialMT-32" d="M 3222 541 
L 3222 0 
L 194 0 
Q 188 203 259 391 
Q 375 700 629 1000 
Q 884 1300 1366 1694 
Q 2113 2306 2375 2664 
Q 2638 3022 2638 3341 
Q 2638 3675 2398 3904 
Q 2159 4134 1775 4134 
Q 1369 4134 1125 3890 
Q 881 3647 878 3216 
L 300 3275 
Q 359 3922 746 4261 
Q 1134 4600 1788 4600 
Q 2447 4600 2831 4234 
Q 3216 3869 3216 3328 
Q 3216 3053 3103 2787 
Q 2991 2522 2730 2228 
Q 2469 1934 1863 1422 
Q 1356 997 1212 845 
Q 1069 694 975 541 
L 3222 541 
z
" transform="scale(0.015625)"/>
        <path id="ArialMT-35" d="M 266 1200 
L 856 1250 
Q 922 819 1161 601 
Q 1400 384 1738 384 
Q 2144 384 2425 690 
Q 2706 997 2706 1503 
Q 2706 1984 2436 2262 
Q 2166 2541 1728 2541 
Q 1456 2541 1237 2417 
Q 1019 2294 894 2097 
L 366 2166 
L 809 4519 
L 3088 4519 
L 3088 3981 
L 1259 3981 
L 1013 2750 
Q 1425 3038 1878 3038 
Q 2478 3038 2890 2622 
Q 3303 2206 3303 1553 
Q 3303 931 2941 478 
Q 2500 -78 1738 -78 
Q 1113 -78 717 272 
Q 322 622 266 1200 
z
" transform="scale(0.015625)"/>
       </defs>
       <use xlink:href="#ArialMT-32"/>
       <use xlink:href="#ArialMT-35" x="55.615234"/>
      </g>
     </g>
    </g>
    <g id="xtick_2">
     <g id="line2d_2">
      <g>
       <use xlink:href="#mddd076f9a0" x="132.244107" y="245.842031" style="stroke: #000000; stroke-width: 2"/>
      </g>
     </g>
     <g id="text_2">
      <!-- 50 -->
      <g transform="translate(122.23442 269.226094)scale(0.18 -0.18)">
       <defs>
        <path id="ArialMT-30" d="M 266 2259 
Q 266 3072 433 3567 
Q 600 4063 929 4331 
Q 1259 4600 1759 4600 
Q 2128 4600 2406 4451 
Q 2684 4303 2865 4023 
Q 3047 3744 3150 3342 
Q 3253 2941 3253 2259 
Q 3253 1453 3087 958 
Q 2922 463 2592 192 
Q 2263 -78 1759 -78 
Q 1097 -78 719 397 
Q 266 969 266 2259 
z
M 844 2259 
Q 844 1131 1108 757 
Q 1372 384 1759 384 
Q 2147 384 2411 759 
Q 2675 1134 2675 2259 
Q 2675 3391 2411 3762 
Q 2147 4134 1753 4134 
Q 1366 4134 1134 3806 
Q 844 3388 844 2259 
z
" transform="scale(0.015625)"/>
       </defs>
       <use xlink:href="#ArialMT-35"/>
       <use xlink:href="#ArialMT-30" x="55.615234"/>
      </g>
     </g>
    </g>
    <g id="xtick_3">
     <g id="line2d_3">
      <g>
       <use xlink:href="#mddd076f9a0" x="172.261964" y="245.842031" style="stroke: #000000; stroke-width: 2"/>
      </g>
     </g>
     <g id="text_3">
      <!-- 75 -->
      <g transform="translate(162.252277 269.226094)scale(0.18 -0.18)">
       <defs>
        <path id="ArialMT-37" d="M 303 3981 
L 303 4522 
L 3269 4522 
L 3269 4084 
Q 2831 3619 2401 2847 
Q 1972 2075 1738 1259 
Q 1569 684 1522 0 
L 944 0 
Q 953 541 1156 1306 
Q 1359 2072 1739 2783 
Q 2119 3494 2547 3981 
L 303 3981 
z
" transform="scale(0.015625)"/>
       </defs>
       <use xlink:href="#ArialMT-37"/>
       <use xlink:href="#ArialMT-35" x="55.615234"/>
      </g>
     </g>
    </g>
    <g id="xtick_4">
     <g id="line2d_4">
      <g>
       <use xlink:href="#mddd076f9a0" x="212.279821" y="245.842031" style="stroke: #000000; stroke-width: 2"/>
      </g>
     </g>
     <g id="text_4">
      <!-- 100 -->
      <g transform="translate(197.26529 269.226094)scale(0.18 -0.18)">
       <defs>
        <path id="ArialMT-31" d="M 2384 0 
L 1822 0 
L 1822 3584 
Q 1619 3391 1289 3197 
Q 959 3003 697 2906 
L 697 3450 
Q 1169 3672 1522 3987 
Q 1875 4303 2022 4600 
L 2384 4600 
L 2384 0 
z
" transform="scale(0.015625)"/>
       </defs>
       <use xlink:href="#ArialMT-31"/>
       <use xlink:href="#ArialMT-30" x="55.615234"/>
       <use xlink:href="#ArialMT-30" x="111.230469"/>
      </g>
     </g>
    </g>
    <g id="xtick_5">
     <g id="line2d_5">
      <g>
       <use xlink:href="#mddd076f9a0" x="252.297679" y="245.842031" style="stroke: #000000; stroke-width: 2"/>
      </g>
     </g>
     <g id="text_5">
      <!-- 125 -->
      <g transform="translate(237.283147 269.226094)scale(0.18 -0.18)">
       <use xlink:href="#ArialMT-31"/>
       <use xlink:href="#ArialMT-32" x="55.615234"/>
       <use xlink:href="#ArialMT-35" x="111.230469"/>
      </g>
     </g>
    </g>
    <g id="xtick_6">
     <g id="line2d_6">
      <g>
       <use xlink:href="#mddd076f9a0" x="292.315536" y="245.842031" style="stroke: #000000; stroke-width: 2"/>
      </g>
     </g>
     <g id="text_6">
      <!-- 150 -->
      <g transform="translate(277.301004 269.226094)scale(0.18 -0.18)">
       <use xlink:href="#ArialMT-31"/>
       <use xlink:href="#ArialMT-35" x="55.615234"/>
       <use xlink:href="#ArialMT-30" x="111.230469"/>
      </g>
     </g>
    </g>
    <g id="xtick_7">
     <g id="line2d_7">
      <g>
       <use xlink:href="#mddd076f9a0" x="332.333393" y="245.842031" style="stroke: #000000; stroke-width: 2"/>
      </g>
     </g>
     <g id="text_7">
      <!-- 175 -->
      <g transform="translate(317.318862 269.226094)scale(0.18 -0.18)">
       <use xlink:href="#ArialMT-31"/>
       <use xlink:href="#ArialMT-37" x="55.615234"/>
       <use xlink:href="#ArialMT-35" x="111.230469"/>
      </g>
     </g>
    </g>
    <g id="xtick_8">
     <g id="line2d_8">
      <g>
       <use xlink:href="#mddd076f9a0" x="372.35125" y="245.842031" style="stroke: #000000; stroke-width: 2"/>
      </g>
     </g>
     <g id="text_8">
      <!-- 200 -->
      <g transform="translate(357.336719 269.226094)scale(0.18 -0.18)">
       <use xlink:href="#ArialMT-32"/>
       <use xlink:href="#ArialMT-30" x="55.615234"/>
       <use xlink:href="#ArialMT-30" x="111.230469"/>
      </g>
     </g>
    </g>
    <g id="xtick_9">
     <g id="line2d_9">
      <g>
       <use xlink:href="#mddd076f9a0" x="412.369107" y="245.842031" style="stroke: #000000; stroke-width: 2"/>
      </g>
     </g>
     <g id="text_9">
      <!-- 225 -->
      <g transform="translate(397.354576 269.226094)scale(0.18 -0.18)">
       <use xlink:href="#ArialMT-32"/>
       <use xlink:href="#ArialMT-32" x="55.615234"/>
       <use xlink:href="#ArialMT-35" x="111.230469"/>
      </g>
     </g>
    </g>
    <g id="xtick_10">
     <g id="line2d_10">
      <defs>
       <path id="m828ca57b6d" d="M 0 0 
L 0 2 
" style="stroke: #000000; stroke-width: 0.6"/>
      </defs>
      <g>
       <use xlink:href="#m828ca57b6d" x="60.211964" y="245.842031" style="stroke: #000000; stroke-width: 0.6"/>
      </g>
     </g>
    </g>
    <g id="xtick_11">
     <g id="line2d_11">
      <g>
       <use xlink:href="#m828ca57b6d" x="68.215536" y="245.842031" style="stroke: #000000; stroke-width: 0.6"/>
      </g>
     </g>
    </g>
    <g id="xtick_12">
     <g id="line2d_12">
      <g>
       <use xlink:href="#m828ca57b6d" x="76.219107" y="245.842031" style="stroke: #000000; stroke-width: 0.6"/>
      </g>
     </g>
    </g>
    <g id="xtick_13">
     <g id="line2d_13">
      <g>
       <use xlink:href="#m828ca57b6d" x="84.222679" y="245.842031" style="stroke: #000000; stroke-width: 0.6"/>
      </g>
     </g>
    </g>
    <g id="xtick_14">
     <g id="line2d_14">
      <g>
       <use xlink:href="#m828ca57b6d" x="100.229821" y="245.842031" style="stroke: #000000; stroke-width: 0.6"/>
      </g>
     </g>
    </g>
    <g id="xtick_15">
     <g id="line2d_15">
      <g>
       <use xlink:href="#m828ca57b6d" x="108.233393" y="245.842031" style="stroke: #000000; stroke-width: 0.6"/>
      </g>
     </g>
    </g>
    <g id="xtick_16">
     <g id="line2d_16">
      <g>
       <use xlink:href="#m828ca57b6d" x="116.236964" y="245.842031" style="stroke: #000000; stroke-width: 0.6"/>
      </g>
     </g>
    </g>
    <g id="xtick_17">
     <g id="line2d_17">
      <g>
       <use xlink:href="#m828ca57b6d" x="124.240536" y="245.842031" style="stroke: #000000; stroke-width: 0.6"/>
      </g>
     </g>
    </g>
    <g id="xtick_18">
     <g id="line2d_18">
      <g>
       <use xlink:href="#m828ca57b6d" x="140.247679" y="245.842031" style="stroke: #000000; stroke-width: 0.6"/>
      </g>
     </g>
    </g>
    <g id="xtick_19">
     <g id="line2d_19">
      <g>
       <use xlink:href="#m828ca57b6d" x="148.25125" y="245.842031" style="stroke: #000000; stroke-width: 0.6"/>
      </g>
     </g>
    </g>
    <g id="xtick_20">
     <g id="line2d_20">
      <g>
       <use xlink:href="#m828ca57b6d" x="156.254821" y="245.842031" style="stroke: #000000; stroke-width: 0.6"/>
      </g>
     </g>
    </g>
    <g id="xtick_21">
     <g id="line2d_21">
      <g>
       <use xlink:href="#m828ca57b6d" x="164.258393" y="245.842031" style="stroke: #000000; stroke-width: 0.6"/>
      </g>
     </g>
    </g>
    <g id="xtick_22">
     <g id="line2d_22">
      <g>
       <use xlink:href="#m828ca57b6d" x="180.265536" y="245.842031" style="stroke: #000000; stroke-width: 0.6"/>
      </g>
     </g>
    </g>
    <g id="xtick_23">
     <g id="line2d_23">
      <g>
       <use xlink:href="#m828ca57b6d" x="188.269107" y="245.842031" style="stroke: #000000; stroke-width: 0.6"/>
      </g>
     </g>
    </g>
    <g id="xtick_24">
     <g id="line2d_24">
      <g>
       <use xlink:href="#m828ca57b6d" x="196.272679" y="245.842031" style="stroke: #000000; stroke-width: 0.6"/>
      </g>
     </g>
    </g>
    <g id="xtick_25">
     <g id="line2d_25">
      <g>
       <use xlink:href="#m828ca57b6d" x="204.27625" y="245.842031" style="stroke: #000000; stroke-width: 0.6"/>
      </g>
     </g>
    </g>
    <g id="xtick_26">
     <g id="line2d_26">
      <g>
       <use xlink:href="#m828ca57b6d" x="220.283393" y="245.842031" style="stroke: #000000; stroke-width: 0.6"/>
      </g>
     </g>
    </g>
    <g id="xtick_27">
     <g id="line2d_27">
      <g>
       <use xlink:href="#m828ca57b6d" x="228.286964" y="245.842031" style="stroke: #000000; stroke-width: 0.6"/>
      </g>
     </g>
    </g>
    <g id="xtick_28">
     <g id="line2d_28">
      <g>
       <use xlink:href="#m828ca57b6d" x="236.290536" y="245.842031" style="stroke: #000000; stroke-width: 0.6"/>
      </g>
     </g>
    </g>
    <g id="xtick_29">
     <g id="line2d_29">
      <g>
       <use xlink:href="#m828ca57b6d" x="244.294107" y="245.842031" style="stroke: #000000; stroke-width: 0.6"/>
      </g>
     </g>
    </g>
    <g id="xtick_30">
     <g id="line2d_30">
      <g>
       <use xlink:href="#m828ca57b6d" x="260.30125" y="245.842031" style="stroke: #000000; stroke-width: 0.6"/>
      </g>
     </g>
    </g>
    <g id="xtick_31">
     <g id="line2d_31">
      <g>
       <use xlink:href="#m828ca57b6d" x="268.304821" y="245.842031" style="stroke: #000000; stroke-width: 0.6"/>
      </g>
     </g>
    </g>
    <g id="xtick_32">
     <g id="line2d_32">
      <g>
       <use xlink:href="#m828ca57b6d" x="276.308393" y="245.842031" style="stroke: #000000; stroke-width: 0.6"/>
      </g>
     </g>
    </g>
    <g id="xtick_33">
     <g id="line2d_33">
      <g>
       <use xlink:href="#m828ca57b6d" x="284.311964" y="245.842031" style="stroke: #000000; stroke-width: 0.6"/>
      </g>
     </g>
    </g>
    <g id="xtick_34">
     <g id="line2d_34">
      <g>
       <use xlink:href="#m828ca57b6d" x="300.319107" y="245.842031" style="stroke: #000000; stroke-width: 0.6"/>
      </g>
     </g>
    </g>
    <g id="xtick_35">
     <g id="line2d_35">
      <g>
       <use xlink:href="#m828ca57b6d" x="308.322679" y="245.842031" style="stroke: #000000; stroke-width: 0.6"/>
      </g>
     </g>
    </g>
    <g id="xtick_36">
     <g id="line2d_36">
      <g>
       <use xlink:href="#m828ca57b6d" x="316.32625" y="245.842031" style="stroke: #000000; stroke-width: 0.6"/>
      </g>
     </g>
    </g>
    <g id="xtick_37">
     <g id="line2d_37">
      <g>
       <use xlink:href="#m828ca57b6d" x="324.329821" y="245.842031" style="stroke: #000000; stroke-width: 0.6"/>
      </g>
     </g>
    </g>
    <g id="xtick_38">
     <g id="line2d_38">
      <g>
       <use xlink:href="#m828ca57b6d" x="340.336964" y="245.842031" style="stroke: #000000; stroke-width: 0.6"/>
      </g>
     </g>
    </g>
    <g id="xtick_39">
     <g id="line2d_39">
      <g>
       <use xlink:href="#m828ca57b6d" x="348.340536" y="245.842031" style="stroke: #000000; stroke-width: 0.6"/>
      </g>
     </g>
    </g>
    <g id="xtick_40">
     <g id="line2d_40">
      <g>
       <use xlink:href="#m828ca57b6d" x="356.344107" y="245.842031" style="stroke: #000000; stroke-width: 0.6"/>
      </g>
     </g>
    </g>
    <g id="xtick_41">
     <g id="line2d_41">
      <g>
       <use xlink:href="#m828ca57b6d" x="364.347679" y="245.842031" style="stroke: #000000; stroke-width: 0.6"/>
      </g>
     </g>
    </g>
    <g id="xtick_42">
     <g id="line2d_42">
      <g>
       <use xlink:href="#m828ca57b6d" x="380.354821" y="245.842031" style="stroke: #000000; stroke-width: 0.6"/>
      </g>
     </g>
    </g>
    <g id="xtick_43">
     <g id="line2d_43">
      <g>
       <use xlink:href="#m828ca57b6d" x="388.358393" y="245.842031" style="stroke: #000000; stroke-width: 0.6"/>
      </g>
     </g>
    </g>
    <g id="xtick_44">
     <g id="line2d_44">
      <g>
       <use xlink:href="#m828ca57b6d" x="396.361964" y="245.842031" style="stroke: #000000; stroke-width: 0.6"/>
      </g>
     </g>
    </g>
    <g id="xtick_45">
     <g id="line2d_45">
      <g>
       <use xlink:href="#m828ca57b6d" x="404.365536" y="245.842031" style="stroke: #000000; stroke-width: 0.6"/>
      </g>
     </g>
    </g>
    <g id="text_10">
     <!-- Number of samples -->
     <g transform="translate(159.866875 289.907031)scale(0.18 -0.18)">
      <defs>
       <path id="ArialMT-4e" d="M 488 0 
L 488 4581 
L 1109 4581 
L 3516 984 
L 3516 4581 
L 4097 4581 
L 4097 0 
L 3475 0 
L 1069 3600 
L 1069 0 
L 488 0 
z
" transform="scale(0.015625)"/>
       <path id="ArialMT-75" d="M 2597 0 
L 2597 488 
Q 2209 -75 1544 -75 
Q 1250 -75 995 37 
Q 741 150 617 320 
Q 494 491 444 738 
Q 409 903 409 1263 
L 409 3319 
L 972 3319 
L 972 1478 
Q 972 1038 1006 884 
Q 1059 663 1231 536 
Q 1403 409 1656 409 
Q 1909 409 2131 539 
Q 2353 669 2445 892 
Q 2538 1116 2538 1541 
L 2538 3319 
L 3100 3319 
L 3100 0 
L 2597 0 
z
" transform="scale(0.015625)"/>
       <path id="ArialMT-6d" d="M 422 0 
L 422 3319 
L 925 3319 
L 925 2853 
Q 1081 3097 1340 3245 
Q 1600 3394 1931 3394 
Q 2300 3394 2536 3241 
Q 2772 3088 2869 2813 
Q 3263 3394 3894 3394 
Q 4388 3394 4653 3120 
Q 4919 2847 4919 2278 
L 4919 0 
L 4359 0 
L 4359 2091 
Q 4359 2428 4304 2576 
Q 4250 2725 4106 2815 
Q 3963 2906 3769 2906 
Q 3419 2906 3187 2673 
Q 2956 2441 2956 1928 
L 2956 0 
L 2394 0 
L 2394 2156 
Q 2394 2531 2256 2718 
Q 2119 2906 1806 2906 
Q 1569 2906 1367 2781 
Q 1166 2656 1075 2415 
Q 984 2175 984 1722 
L 984 0 
L 422 0 
z
" transform="scale(0.015625)"/>
       <path id="ArialMT-62" d="M 941 0 
L 419 0 
L 419 4581 
L 981 4581 
L 981 2947 
Q 1338 3394 1891 3394 
Q 2197 3394 2470 3270 
Q 2744 3147 2920 2923 
Q 3097 2700 3197 2384 
Q 3297 2069 3297 1709 
Q 3297 856 2875 390 
Q 2453 -75 1863 -75 
Q 1275 -75 941 416 
L 941 0 
z
M 934 1684 
Q 934 1088 1097 822 
Q 1363 388 1816 388 
Q 2184 388 2453 708 
Q 2722 1028 2722 1663 
Q 2722 2313 2464 2622 
Q 2206 2931 1841 2931 
Q 1472 2931 1203 2611 
Q 934 2291 934 1684 
z
" transform="scale(0.015625)"/>
       <path id="ArialMT-65" d="M 2694 1069 
L 3275 997 
Q 3138 488 2766 206 
Q 2394 -75 1816 -75 
Q 1088 -75 661 373 
Q 234 822 234 1631 
Q 234 2469 665 2931 
Q 1097 3394 1784 3394 
Q 2450 3394 2872 2941 
Q 3294 2488 3294 1666 
Q 3294 1616 3291 1516 
L 816 1516 
Q 847 969 1125 678 
Q 1403 388 1819 388 
Q 2128 388 2347 550 
Q 2566 713 2694 1069 
z
M 847 1978 
L 2700 1978 
Q 2663 2397 2488 2606 
Q 2219 2931 1791 2931 
Q 1403 2931 1139 2672 
Q 875 2413 847 1978 
z
" transform="scale(0.015625)"/>
       <path id="ArialMT-72" d="M 416 0 
L 416 3319 
L 922 3319 
L 922 2816 
Q 1116 3169 1280 3281 
Q 1444 3394 1641 3394 
Q 1925 3394 2219 3213 
L 2025 2691 
Q 1819 2813 1613 2813 
Q 1428 2813 1281 2702 
Q 1134 2591 1072 2394 
Q 978 2094 978 1738 
L 978 0 
L 416 0 
z
" transform="scale(0.015625)"/>
       <path id="ArialMT-20" transform="scale(0.015625)"/>
       <path id="ArialMT-6f" d="M 213 1659 
Q 213 2581 725 3025 
Q 1153 3394 1769 3394 
Q 2453 3394 2887 2945 
Q 3322 2497 3322 1706 
Q 3322 1066 3130 698 
Q 2938 331 2570 128 
Q 2203 -75 1769 -75 
Q 1072 -75 642 372 
Q 213 819 213 1659 
z
M 791 1659 
Q 791 1022 1069 705 
Q 1347 388 1769 388 
Q 2188 388 2466 706 
Q 2744 1025 2744 1678 
Q 2744 2294 2464 2611 
Q 2184 2928 1769 2928 
Q 1347 2928 1069 2612 
Q 791 2297 791 1659 
z
" transform="scale(0.015625)"/>
       <path id="ArialMT-66" d="M 556 0 
L 556 2881 
L 59 2881 
L 59 3319 
L 556 3319 
L 556 3672 
Q 556 4006 616 4169 
Q 697 4388 901 4523 
Q 1106 4659 1475 4659 
Q 1713 4659 2000 4603 
L 1916 4113 
Q 1741 4144 1584 4144 
Q 1328 4144 1222 4034 
Q 1116 3925 1116 3625 
L 1116 3319 
L 1763 3319 
L 1763 2881 
L 1116 2881 
L 1116 0 
L 556 0 
z
" transform="scale(0.015625)"/>
       <path id="ArialMT-73" d="M 197 991 
L 753 1078 
Q 800 744 1014 566 
Q 1228 388 1613 388 
Q 2000 388 2187 545 
Q 2375 703 2375 916 
Q 2375 1106 2209 1216 
Q 2094 1291 1634 1406 
Q 1016 1563 777 1677 
Q 538 1791 414 1992 
Q 291 2194 291 2438 
Q 291 2659 392 2848 
Q 494 3038 669 3163 
Q 800 3259 1026 3326 
Q 1253 3394 1513 3394 
Q 1903 3394 2198 3281 
Q 2494 3169 2634 2976 
Q 2775 2784 2828 2463 
L 2278 2388 
Q 2241 2644 2061 2787 
Q 1881 2931 1553 2931 
Q 1166 2931 1000 2803 
Q 834 2675 834 2503 
Q 834 2394 903 2306 
Q 972 2216 1119 2156 
Q 1203 2125 1616 2013 
Q 2213 1853 2448 1751 
Q 2684 1650 2818 1456 
Q 2953 1263 2953 975 
Q 2953 694 2789 445 
Q 2625 197 2315 61 
Q 2006 -75 1616 -75 
Q 969 -75 630 194 
Q 291 463 197 991 
z
" transform="scale(0.015625)"/>
       <path id="ArialMT-61" d="M 2588 409 
Q 2275 144 1986 34 
Q 1697 -75 1366 -75 
Q 819 -75 525 192 
Q 231 459 231 875 
Q 231 1119 342 1320 
Q 453 1522 633 1644 
Q 813 1766 1038 1828 
Q 1203 1872 1538 1913 
Q 2219 1994 2541 2106 
Q 2544 2222 2544 2253 
Q 2544 2597 2384 2738 
Q 2169 2928 1744 2928 
Q 1347 2928 1158 2789 
Q 969 2650 878 2297 
L 328 2372 
Q 403 2725 575 2942 
Q 747 3159 1072 3276 
Q 1397 3394 1825 3394 
Q 2250 3394 2515 3294 
Q 2781 3194 2906 3042 
Q 3031 2891 3081 2659 
Q 3109 2516 3109 2141 
L 3109 1391 
Q 3109 606 3145 398 
Q 3181 191 3288 0 
L 2700 0 
Q 2613 175 2588 409 
z
M 2541 1666 
Q 2234 1541 1622 1453 
Q 1275 1403 1131 1340 
Q 988 1278 909 1158 
Q 831 1038 831 891 
Q 831 666 1001 516 
Q 1172 366 1500 366 
Q 1825 366 2078 508 
Q 2331 650 2450 897 
Q 2541 1088 2541 1459 
L 2541 1666 
z
" transform="scale(0.015625)"/>
       <path id="ArialMT-70" d="M 422 -1272 
L 422 3319 
L 934 3319 
L 934 2888 
Q 1116 3141 1344 3267 
Q 1572 3394 1897 3394 
Q 2322 3394 2647 3175 
Q 2972 2956 3137 2557 
Q 3303 2159 3303 1684 
Q 3303 1175 3120 767 
Q 2938 359 2589 142 
Q 2241 -75 1856 -75 
Q 1575 -75 1351 44 
Q 1128 163 984 344 
L 984 -1272 
L 422 -1272 
z
M 931 1641 
Q 931 1000 1190 694 
Q 1450 388 1819 388 
Q 2194 388 2461 705 
Q 2728 1022 2728 1688 
Q 2728 2322 2467 2637 
Q 2206 2953 1844 2953 
Q 1484 2953 1207 2617 
Q 931 2281 931 1641 
z
" transform="scale(0.015625)"/>
       <path id="ArialMT-6c" d="M 409 0 
L 409 4581 
L 972 4581 
L 972 0 
L 409 0 
z
" transform="scale(0.015625)"/>
      </defs>
      <use xlink:href="#ArialMT-4e"/>
      <use xlink:href="#ArialMT-75" x="72.216797"/>
      <use xlink:href="#ArialMT-6d" x="127.832031"/>
      <use xlink:href="#ArialMT-62" x="211.132812"/>
      <use xlink:href="#ArialMT-65" x="266.748047"/>
      <use xlink:href="#ArialMT-72" x="322.363281"/>
      <use xlink:href="#ArialMT-20" x="355.664062"/>
      <use xlink:href="#ArialMT-6f" x="383.447266"/>
      <use xlink:href="#ArialMT-66" x="439.0625"/>
      <use xlink:href="#ArialMT-20" x="466.845703"/>
      <use xlink:href="#ArialMT-73" x="494.628906"/>
      <use xlink:href="#ArialMT-61" x="544.628906"/>
      <use xlink:href="#ArialMT-6d" x="600.244141"/>
      <use xlink:href="#ArialMT-70" x="683.544922"/>
      <use xlink:href="#ArialMT-6c" x="739.160156"/>
      <use xlink:href="#ArialMT-65" x="761.376953"/>
      <use xlink:href="#ArialMT-73" x="816.992188"/>
     </g>
    </g>
   </g>
   <g id="matplotlib.axis_2">
    <g id="ytick_1">
     <g id="line2d_46">
      <path d="M 58.61125 214.414324 
L 417.17125 214.414324 
" clip-path="url(#p910d337798)" style="fill: none; stroke-dasharray: 5.12,1.28,0.8,1.28; stroke-dashoffset: 0; stroke: #b0b0b0; stroke-width: 0.8"/>
     </g>
     <g id="line2d_47">
      <defs>
       <path id="mf395f76f75" d="M 0 0 
L -7 0 
" style="stroke: #000000; stroke-width: 2"/>
      </defs>
      <g>
       <use xlink:href="#mf395f76f75" x="58.61125" y="214.414324" style="stroke: #000000; stroke-width: 2"/>
      </g>
     </g>
     <g id="text_11">
      <!-- 3 -->
      <g transform="translate(38.101562 220.856355)scale(0.18 -0.18)">
       <defs>
        <path id="ArialMT-33" d="M 269 1209 
L 831 1284 
Q 928 806 1161 595 
Q 1394 384 1728 384 
Q 2125 384 2398 659 
Q 2672 934 2672 1341 
Q 2672 1728 2419 1979 
Q 2166 2231 1775 2231 
Q 1616 2231 1378 2169 
L 1441 2663 
Q 1497 2656 1531 2656 
Q 1891 2656 2178 2843 
Q 2466 3031 2466 3422 
Q 2466 3731 2256 3934 
Q 2047 4138 1716 4138 
Q 1388 4138 1169 3931 
Q 950 3725 888 3313 
L 325 3413 
Q 428 3978 793 4289 
Q 1159 4600 1703 4600 
Q 2078 4600 2393 4439 
Q 2709 4278 2876 4000 
Q 3044 3722 3044 3409 
Q 3044 3113 2884 2869 
Q 2725 2625 2413 2481 
Q 2819 2388 3044 2092 
Q 3269 1797 3269 1353 
Q 3269 753 2831 336 
Q 2394 -81 1725 -81 
Q 1122 -81 723 278 
Q 325 638 269 1209 
z
" transform="scale(0.015625)"/>
       </defs>
       <use xlink:href="#ArialMT-33"/>
      </g>
     </g>
    </g>
    <g id="ytick_2">
     <g id="line2d_48">
      <path d="M 58.61125 174.820095 
L 417.17125 174.820095 
" clip-path="url(#p910d337798)" style="fill: none; stroke-dasharray: 5.12,1.28,0.8,1.28; stroke-dashoffset: 0; stroke: #b0b0b0; stroke-width: 0.8"/>
     </g>
     <g id="line2d_49">
      <g>
       <use xlink:href="#mf395f76f75" x="58.61125" y="174.820095" style="stroke: #000000; stroke-width: 2"/>
      </g>
     </g>
     <g id="text_12">
      <!-- 5 -->
      <g transform="translate(38.101562 181.262126)scale(0.18 -0.18)">
       <use xlink:href="#ArialMT-35"/>
      </g>
     </g>
    </g>
    <g id="ytick_3">
     <g id="line2d_50">
      <path d="M 58.61125 121.094073 
L 417.17125 121.094073 
" clip-path="url(#p910d337798)" style="fill: none; stroke-dasharray: 5.12,1.28,0.8,1.28; stroke-dashoffset: 0; stroke: #b0b0b0; stroke-width: 0.8"/>
     </g>
     <g id="line2d_51">
      <g>
       <use xlink:href="#mf395f76f75" x="58.61125" y="121.094073" style="stroke: #000000; stroke-width: 2"/>
      </g>
     </g>
     <g id="text_13">
      <!-- 10 -->
      <g transform="translate(28.091875 127.536105)scale(0.18 -0.18)">
       <use xlink:href="#ArialMT-31"/>
       <use xlink:href="#ArialMT-30" x="55.615234"/>
      </g>
     </g>
    </g>
    <g id="ytick_4">
     <g id="line2d_52">
      <path d="M 58.61125 67.368052 
L 417.17125 67.368052 
" clip-path="url(#p910d337798)" style="fill: none; stroke-dasharray: 5.12,1.28,0.8,1.28; stroke-dashoffset: 0; stroke: #b0b0b0; stroke-width: 0.8"/>
     </g>
     <g id="line2d_53">
      <g>
       <use xlink:href="#mf395f76f75" x="58.61125" y="67.368052" style="stroke: #000000; stroke-width: 2"/>
      </g>
     </g>
     <g id="text_14">
      <!-- 20 -->
      <g transform="translate(28.091875 73.810084)scale(0.18 -0.18)">
       <use xlink:href="#ArialMT-32"/>
       <use xlink:href="#ArialMT-30" x="55.615234"/>
      </g>
     </g>
    </g>
    <g id="ytick_5">
     <g id="line2d_54">
      <path d="M 58.61125 13.642031 
L 417.17125 13.642031 
" clip-path="url(#p910d337798)" style="fill: none; stroke-dasharray: 5.12,1.28,0.8,1.28; stroke-dashoffset: 0; stroke: #b0b0b0; stroke-width: 0.8"/>
     </g>
     <g id="line2d_55">
      <g>
       <use xlink:href="#mf395f76f75" x="58.61125" y="13.642031" style="stroke: #000000; stroke-width: 2"/>
      </g>
     </g>
     <g id="text_15">
      <!-- 40 -->
      <g transform="translate(28.091875 20.084063)scale(0.18 -0.18)">
       <defs>
        <path id="ArialMT-34" d="M 2069 0 
L 2069 1097 
L 81 1097 
L 81 1613 
L 2172 4581 
L 2631 4581 
L 2631 1613 
L 3250 1613 
L 3250 1097 
L 2631 1097 
L 2631 0 
L 2069 0 
z
M 2069 1613 
L 2069 3678 
L 634 1613 
L 2069 1613 
z
" transform="scale(0.015625)"/>
       </defs>
       <use xlink:href="#ArialMT-34"/>
       <use xlink:href="#ArialMT-30" x="55.615234"/>
      </g>
     </g>
    </g>
    <g id="ytick_6">
     <g id="line2d_56">
      <defs>
       <path id="ma370a54f14" d="M 0 0 
L -2 0 
" style="stroke: #000000; stroke-width: 0.6"/>
      </defs>
      <g>
       <use xlink:href="#ma370a54f14" x="58.61125" y="245.842031" style="stroke: #000000; stroke-width: 0.6"/>
      </g>
     </g>
    </g>
    <g id="ytick_7">
     <g id="line2d_57">
      <g>
       <use xlink:href="#ma370a54f14" x="58.61125" y="192.11601" style="stroke: #000000; stroke-width: 0.6"/>
      </g>
     </g>
    </g>
    <g id="ytick_8">
     <g id="line2d_58">
      <g>
       <use xlink:href="#ma370a54f14" x="58.61125" y="160.688303" style="stroke: #000000; stroke-width: 0.6"/>
      </g>
     </g>
    </g>
    <g id="ytick_9">
     <g id="line2d_59">
      <g>
       <use xlink:href="#ma370a54f14" x="58.61125" y="148.740043" style="stroke: #000000; stroke-width: 0.6"/>
      </g>
     </g>
    </g>
    <g id="ytick_10">
     <g id="line2d_60">
      <g>
       <use xlink:href="#ma370a54f14" x="58.61125" y="138.389989" style="stroke: #000000; stroke-width: 0.6"/>
      </g>
     </g>
    </g>
    <g id="ytick_11">
     <g id="line2d_61">
      <g>
       <use xlink:href="#ma370a54f14" x="58.61125" y="129.260595" style="stroke: #000000; stroke-width: 0.6"/>
      </g>
     </g>
    </g>
    <g id="ytick_12">
     <g id="line2d_62">
      <g>
       <use xlink:href="#ma370a54f14" x="58.61125" y="35.940345" style="stroke: #000000; stroke-width: 0.6"/>
      </g>
     </g>
    </g>
    <g id="text_16">
     <!-- MAE (K)  -->
     <g transform="translate(20.303437 166.242656)rotate(-90)scale(0.18 -0.18)">
      <defs>
       <path id="ArialMT-4d" d="M 475 0 
L 475 4581 
L 1388 4581 
L 2472 1338 
Q 2622 884 2691 659 
Q 2769 909 2934 1394 
L 4031 4581 
L 4847 4581 
L 4847 0 
L 4263 0 
L 4263 3834 
L 2931 0 
L 2384 0 
L 1059 3900 
L 1059 0 
L 475 0 
z
" transform="scale(0.015625)"/>
       <path id="ArialMT-41" d="M -9 0 
L 1750 4581 
L 2403 4581 
L 4278 0 
L 3588 0 
L 3053 1388 
L 1138 1388 
L 634 0 
L -9 0 
z
M 1313 1881 
L 2866 1881 
L 2388 3150 
Q 2169 3728 2063 4100 
Q 1975 3659 1816 3225 
L 1313 1881 
z
" transform="scale(0.015625)"/>
       <path id="ArialMT-45" d="M 506 0 
L 506 4581 
L 3819 4581 
L 3819 4041 
L 1113 4041 
L 1113 2638 
L 3647 2638 
L 3647 2100 
L 1113 2100 
L 1113 541 
L 3925 541 
L 3925 0 
L 506 0 
z
" transform="scale(0.015625)"/>
       <path id="ArialMT-28" d="M 1497 -1347 
Q 1031 -759 709 28 
Q 388 816 388 1659 
Q 388 2403 628 3084 
Q 909 3875 1497 4659 
L 1900 4659 
Q 1522 4009 1400 3731 
Q 1209 3300 1100 2831 
Q 966 2247 966 1656 
Q 966 153 1900 -1347 
L 1497 -1347 
z
" transform="scale(0.015625)"/>
       <path id="ArialMT-4b" d="M 469 0 
L 469 4581 
L 1075 4581 
L 1075 2309 
L 3350 4581 
L 4172 4581 
L 2250 2725 
L 4256 0 
L 3456 0 
L 1825 2319 
L 1075 1588 
L 1075 0 
L 469 0 
z
" transform="scale(0.015625)"/>
       <path id="ArialMT-29" d="M 791 -1347 
L 388 -1347 
Q 1322 153 1322 1656 
Q 1322 2244 1188 2822 
Q 1081 3291 891 3722 
Q 769 4003 388 4659 
L 791 4659 
Q 1378 3875 1659 3084 
Q 1900 2403 1900 1659 
Q 1900 816 1576 28 
Q 1253 -759 791 -1347 
z
" transform="scale(0.015625)"/>
      </defs>
      <use xlink:href="#ArialMT-4d"/>
      <use xlink:href="#ArialMT-41" x="83.300781"/>
      <use xlink:href="#ArialMT-45" x="150"/>
      <use xlink:href="#ArialMT-20" x="216.699219"/>
      <use xlink:href="#ArialMT-28" x="244.482422"/>
      <use xlink:href="#ArialMT-4b" x="277.783203"/>
      <use xlink:href="#ArialMT-29" x="344.482422"/>
      <use xlink:href="#ArialMT-20" x="377.783203"/>
     </g>
    </g>
   </g>
   <g id="patch_5">
    <path d="M 58.61125 245.842031 
L 58.61125 13.642031 
" style="fill: none; stroke: #000000; stroke-width: 2; stroke-linejoin: miter; stroke-linecap: square"/>
   </g>
   <g id="patch_6">
    <path d="M 58.61125 245.842031 
L 417.17125 245.842031 
" style="fill: none; stroke: #000000; stroke-width: 2; stroke-linejoin: miter; stroke-linecap: square"/>
   </g>
   <g id="legend_1">
    <g id="patch_7">
     <path d="M 309.657813 124.357969 
L 407.37125 124.357969 
Q 410.17125 124.357969 410.17125 121.557969 
L 410.17125 23.442031 
Q 410.17125 20.642031 407.37125 20.642031 
L 309.657813 20.642031 
Q 306.857813 20.642031 306.857813 23.442031 
L 306.857813 121.557969 
Q 306.857813 124.357969 309.657813 124.357969 
z
" style="fill: #ffffff; opacity: 0.8; stroke: #cccccc; stroke-linejoin: miter"/>
    </g>
    <g id="line2d_63">
     <path d="M 312.457813 31.362969 
L 326.457813 31.362969 
L 340.457813 31.362969 
" style="fill: none; stroke: #757575; stroke-width: 2; stroke-linecap: square"/>
    </g>
    <g id="text_17">
     <!-- Random -->
     <g transform="translate(351.657813 36.262969)scale(0.14 -0.14)">
      <defs>
       <path id="ArialMT-52" d="M 503 0 
L 503 4581 
L 2534 4581 
Q 3147 4581 3465 4457 
Q 3784 4334 3975 4021 
Q 4166 3709 4166 3331 
Q 4166 2844 3850 2509 
Q 3534 2175 2875 2084 
Q 3116 1969 3241 1856 
Q 3506 1613 3744 1247 
L 4541 0 
L 3778 0 
L 3172 953 
Q 2906 1366 2734 1584 
Q 2563 1803 2427 1890 
Q 2291 1978 2150 2013 
Q 2047 2034 1813 2034 
L 1109 2034 
L 1109 0 
L 503 0 
z
M 1109 2559 
L 2413 2559 
Q 2828 2559 3062 2645 
Q 3297 2731 3419 2920 
Q 3541 3109 3541 3331 
Q 3541 3656 3305 3865 
Q 3069 4075 2559 4075 
L 1109 4075 
L 1109 2559 
z
" transform="scale(0.015625)"/>
       <path id="ArialMT-6e" d="M 422 0 
L 422 3319 
L 928 3319 
L 928 2847 
Q 1294 3394 1984 3394 
Q 2284 3394 2536 3286 
Q 2788 3178 2913 3003 
Q 3038 2828 3088 2588 
Q 3119 2431 3119 2041 
L 3119 0 
L 2556 0 
L 2556 2019 
Q 2556 2363 2490 2533 
Q 2425 2703 2258 2804 
Q 2091 2906 1866 2906 
Q 1506 2906 1245 2678 
Q 984 2450 984 1813 
L 984 0 
L 422 0 
z
" transform="scale(0.015625)"/>
       <path id="ArialMT-64" d="M 2575 0 
L 2575 419 
Q 2259 -75 1647 -75 
Q 1250 -75 917 144 
Q 584 363 401 755 
Q 219 1147 219 1656 
Q 219 2153 384 2558 
Q 550 2963 881 3178 
Q 1213 3394 1622 3394 
Q 1922 3394 2156 3267 
Q 2391 3141 2538 2938 
L 2538 4581 
L 3097 4581 
L 3097 0 
L 2575 0 
z
M 797 1656 
Q 797 1019 1065 703 
Q 1334 388 1700 388 
Q 2069 388 2326 689 
Q 2584 991 2584 1609 
Q 2584 2291 2321 2609 
Q 2059 2928 1675 2928 
Q 1300 2928 1048 2622 
Q 797 2316 797 1656 
z
" transform="scale(0.015625)"/>
      </defs>
      <use xlink:href="#ArialMT-52"/>
      <use xlink:href="#ArialMT-61" x="72.216797"/>
      <use xlink:href="#ArialMT-6e" x="127.832031"/>
      <use xlink:href="#ArialMT-64" x="183.447266"/>
      <use xlink:href="#ArialMT-6f" x="239.0625"/>
      <use xlink:href="#ArialMT-6d" x="294.677734"/>
     </g>
    </g>
    <g id="line2d_64">
     <path d="M 312.457813 51.166406 
L 326.457813 51.166406 
L 340.457813 51.166406 
" style="fill: none; stroke: #81c784; stroke-width: 2; stroke-linecap: square"/>
    </g>
    <g id="text_18">
     <!-- Cluster -->
     <g transform="translate(351.657813 56.066406)scale(0.14 -0.14)">
      <defs>
       <path id="ArialMT-43" d="M 3763 1606 
L 4369 1453 
Q 4178 706 3683 314 
Q 3188 -78 2472 -78 
Q 1731 -78 1267 223 
Q 803 525 561 1097 
Q 319 1669 319 2325 
Q 319 3041 592 3573 
Q 866 4106 1370 4382 
Q 1875 4659 2481 4659 
Q 3169 4659 3637 4309 
Q 4106 3959 4291 3325 
L 3694 3184 
Q 3534 3684 3231 3912 
Q 2928 4141 2469 4141 
Q 1941 4141 1586 3887 
Q 1231 3634 1087 3207 
Q 944 2781 944 2328 
Q 944 1744 1114 1308 
Q 1284 872 1643 656 
Q 2003 441 2422 441 
Q 2931 441 3284 734 
Q 3638 1028 3763 1606 
z
" transform="scale(0.015625)"/>
       <path id="ArialMT-74" d="M 1650 503 
L 1731 6 
Q 1494 -44 1306 -44 
Q 1000 -44 831 53 
Q 663 150 594 308 
Q 525 466 525 972 
L 525 2881 
L 113 2881 
L 113 3319 
L 525 3319 
L 525 4141 
L 1084 4478 
L 1084 3319 
L 1650 3319 
L 1650 2881 
L 1084 2881 
L 1084 941 
Q 1084 700 1114 631 
Q 1144 563 1211 522 
Q 1278 481 1403 481 
Q 1497 481 1650 503 
z
" transform="scale(0.015625)"/>
      </defs>
      <use xlink:href="#ArialMT-43"/>
      <use xlink:href="#ArialMT-6c" x="72.216797"/>
      <use xlink:href="#ArialMT-75" x="94.433594"/>
      <use xlink:href="#ArialMT-73" x="150.048828"/>
      <use xlink:href="#ArialMT-74" x="200.048828"/>
      <use xlink:href="#ArialMT-65" x="227.832031"/>
      <use xlink:href="#ArialMT-72" x="283.447266"/>
     </g>
    </g>
    <g id="line2d_65">
     <path d="M 312.457813 71.140469 
L 326.457813 71.140469 
L 340.457813 71.140469 
" style="fill: none; stroke: #039be5; stroke-width: 2; stroke-linecap: square"/>
    </g>
    <g id="text_19">
     <!-- HighSV -->
     <g transform="translate(351.657813 76.040469)scale(0.14 -0.14)">
      <defs>
       <path id="ArialMT-48" d="M 513 0 
L 513 4581 
L 1119 4581 
L 1119 2700 
L 3500 2700 
L 3500 4581 
L 4106 4581 
L 4106 0 
L 3500 0 
L 3500 2159 
L 1119 2159 
L 1119 0 
L 513 0 
z
" transform="scale(0.015625)"/>
       <path id="ArialMT-69" d="M 425 3934 
L 425 4581 
L 988 4581 
L 988 3934 
L 425 3934 
z
M 425 0 
L 425 3319 
L 988 3319 
L 988 0 
L 425 0 
z
" transform="scale(0.015625)"/>
       <path id="ArialMT-67" d="M 319 -275 
L 866 -356 
Q 900 -609 1056 -725 
Q 1266 -881 1628 -881 
Q 2019 -881 2231 -725 
Q 2444 -569 2519 -288 
Q 2563 -116 2559 434 
Q 2191 0 1641 0 
Q 956 0 581 494 
Q 206 988 206 1678 
Q 206 2153 378 2554 
Q 550 2956 876 3175 
Q 1203 3394 1644 3394 
Q 2231 3394 2613 2919 
L 2613 3319 
L 3131 3319 
L 3131 450 
Q 3131 -325 2973 -648 
Q 2816 -972 2473 -1159 
Q 2131 -1347 1631 -1347 
Q 1038 -1347 672 -1080 
Q 306 -813 319 -275 
z
M 784 1719 
Q 784 1066 1043 766 
Q 1303 466 1694 466 
Q 2081 466 2343 764 
Q 2606 1063 2606 1700 
Q 2606 2309 2336 2618 
Q 2066 2928 1684 2928 
Q 1309 2928 1046 2623 
Q 784 2319 784 1719 
z
" transform="scale(0.015625)"/>
       <path id="ArialMT-68" d="M 422 0 
L 422 4581 
L 984 4581 
L 984 2938 
Q 1378 3394 1978 3394 
Q 2347 3394 2619 3248 
Q 2891 3103 3008 2847 
Q 3125 2591 3125 2103 
L 3125 0 
L 2563 0 
L 2563 2103 
Q 2563 2525 2380 2717 
Q 2197 2909 1863 2909 
Q 1613 2909 1392 2779 
Q 1172 2650 1078 2428 
Q 984 2206 984 1816 
L 984 0 
L 422 0 
z
" transform="scale(0.015625)"/>
       <path id="ArialMT-53" d="M 288 1472 
L 859 1522 
Q 900 1178 1048 958 
Q 1197 738 1509 602 
Q 1822 466 2213 466 
Q 2559 466 2825 569 
Q 3091 672 3220 851 
Q 3350 1031 3350 1244 
Q 3350 1459 3225 1620 
Q 3100 1781 2813 1891 
Q 2628 1963 1997 2114 
Q 1366 2266 1113 2400 
Q 784 2572 623 2826 
Q 463 3081 463 3397 
Q 463 3744 659 4045 
Q 856 4347 1234 4503 
Q 1613 4659 2075 4659 
Q 2584 4659 2973 4495 
Q 3363 4331 3572 4012 
Q 3781 3694 3797 3291 
L 3216 3247 
Q 3169 3681 2898 3903 
Q 2628 4125 2100 4125 
Q 1550 4125 1298 3923 
Q 1047 3722 1047 3438 
Q 1047 3191 1225 3031 
Q 1400 2872 2139 2705 
Q 2878 2538 3153 2413 
Q 3553 2228 3743 1945 
Q 3934 1663 3934 1294 
Q 3934 928 3725 604 
Q 3516 281 3123 101 
Q 2731 -78 2241 -78 
Q 1619 -78 1198 103 
Q 778 284 539 648 
Q 300 1013 288 1472 
z
" transform="scale(0.015625)"/>
       <path id="ArialMT-56" d="M 1803 0 
L 28 4581 
L 684 4581 
L 1875 1253 
Q 2019 853 2116 503 
Q 2222 878 2363 1253 
L 3600 4581 
L 4219 4581 
L 2425 0 
L 1803 0 
z
" transform="scale(0.015625)"/>
      </defs>
      <use xlink:href="#ArialMT-48"/>
      <use xlink:href="#ArialMT-69" x="72.216797"/>
      <use xlink:href="#ArialMT-67" x="94.433594"/>
      <use xlink:href="#ArialMT-68" x="150.048828"/>
      <use xlink:href="#ArialMT-53" x="205.664062"/>
      <use xlink:href="#ArialMT-56" x="272.363281"/>
     </g>
    </g>
    <g id="line2d_66">
     <path d="M 312.457813 91.107969 
L 326.457813 91.107969 
L 340.457813 91.107969 
" style="fill: none; stroke: #6b4e9b; stroke-width: 2; stroke-linecap: square"/>
    </g>
    <g id="text_20">
     <!-- LowAV -->
     <g transform="translate(351.657813 96.007969)scale(0.14 -0.14)">
      <defs>
       <path id="ArialMT-4c" d="M 469 0 
L 469 4581 
L 1075 4581 
L 1075 541 
L 3331 541 
L 3331 0 
L 469 0 
z
" transform="scale(0.015625)"/>
       <path id="ArialMT-77" d="M 1034 0 
L 19 3319 
L 600 3319 
L 1128 1403 
L 1325 691 
Q 1338 744 1497 1375 
L 2025 3319 
L 2603 3319 
L 3100 1394 
L 3266 759 
L 3456 1400 
L 4025 3319 
L 4572 3319 
L 3534 0 
L 2950 0 
L 2422 1988 
L 2294 2553 
L 1622 0 
L 1034 0 
z
" transform="scale(0.015625)"/>
      </defs>
      <use xlink:href="#ArialMT-4c"/>
      <use xlink:href="#ArialMT-6f" x="55.615234"/>
      <use xlink:href="#ArialMT-77" x="111.230469"/>
      <use xlink:href="#ArialMT-41" x="183.447266"/>
      <use xlink:href="#ArialMT-56" x="242.771484"/>
     </g>
    </g>
    <g id="line2d_67">
     <path d="M 312.457813 110.911406 
L 326.457813 110.911406 
L 340.457813 110.911406 
" style="fill: none; stroke: #f44336; stroke-width: 2; stroke-linecap: square"/>
    </g>
    <g id="text_21">
     <!-- HighAV -->
     <g transform="translate(351.657813 115.811406)scale(0.14 -0.14)">
      <use xlink:href="#ArialMT-48"/>
      <use xlink:href="#ArialMT-69" x="72.216797"/>
      <use xlink:href="#ArialMT-67" x="94.433594"/>
      <use xlink:href="#ArialMT-68" x="150.048828"/>
      <use xlink:href="#ArialMT-41" x="205.664062"/>
      <use xlink:href="#ArialMT-56" x="264.988281"/>
     </g>
    </g>
   </g>
   <g id="line2d_68">
    <path d="M 60.211964 79.833383 
L 65.014107 101.165723 
L 69.81625 97.163893 
L 74.618393 108.563658 
L 79.420536 127.320549 
L 84.222679 118.867666 
L 89.024821 115.987128 
L 93.826964 126.61343 
L 98.629107 133.568675 
L 103.43125 139.024117 
L 108.233393 130.70531 
L 113.035536 134.656787 
L 117.837679 146.823461 
L 122.639821 146.763442 
L 127.441964 146.172364 
L 132.244107 158.392709 
L 137.04625 156.180535 
L 141.848393 158.688062 
L 146.650536 164.103866 
L 151.452679 159.746433 
L 156.254821 166.794693 
L 161.056964 173.192828 
L 165.859107 167.082692 
L 170.66125 165.423569 
L 175.463393 165.72998 
L 180.265536 170.975037 
L 185.067679 168.418669 
L 189.869821 170.815884 
L 194.671964 173.698756 
L 199.474107 176.499572 
L 204.27625 175.550204 
L 209.078393 175.370335 
L 213.880536 173.665919 
L 218.682679 180.010864 
L 223.484821 174.269584 
L 228.286964 174.459777 
L 233.089107 180.339453 
L 237.89125 185.213123 
L 242.693393 181.771711 
L 247.495536 181.007075 
L 252.297679 182.143829 
L 257.099821 182.883794 
L 261.901964 182.74146 
L 266.704107 182.544774 
L 271.50625 181.751412 
L 276.308393 183.74838 
L 281.110536 186.678363 
L 285.912679 185.778593 
L 290.714821 185.438569 
L 295.516964 186.920355 
L 300.319107 189.686713 
L 305.12125 186.349367 
L 309.923393 189.897794 
L 314.725536 183.268289 
L 319.527679 191.577413 
L 324.329821 189.572109 
L 329.131964 188.521315 
L 333.934107 191.611421 
L 338.73625 191.512258 
L 343.538393 192.263325 
L 348.340536 192.041057 
L 353.142679 190.672332 
L 357.944821 192.830549 
L 362.746964 191.835744 
L 367.549107 193.484307 
L 372.35125 195.336268 
L 377.153393 192.153299 
L 381.955536 196.355152 
L 386.757679 195.97863 
L 391.559821 196.084736 
L 396.361964 196.228431 
L 401.164107 195.598136 
L 405.96625 195.136175 
L 410.768393 198.090068 
L 415.570536 201.013633 
L 420.372679 196.856417 
L 425.174821 197.871129 
L 429.976964 200.360774 
L 434.779107 198.669106 
L 435.583638 199.199746 
" clip-path="url(#p910d337798)" style="fill: none; stroke: #757575; stroke-width: 2; stroke-linecap: square"/>
   </g>
   <g id="line2d_69">
    <path d="M 60.211964 86.858207 
L 65.014107 95.175829 
L 69.81625 98.737124 
L 74.618393 115.764379 
L 79.420536 118.516103 
L 84.222679 129.772129 
L 89.024821 133.904394 
L 93.826964 137.414964 
L 98.629107 147.777369 
L 103.43125 146.125496 
L 108.233393 143.841872 
L 113.035536 147.954461 
L 117.837679 158.671081 
L 122.639821 156.21253 
L 127.441964 162.828092 
L 132.244107 156.995654 
L 137.04625 161.241509 
L 141.848393 167.495992 
L 146.650536 171.968599 
L 151.452679 170.409114 
L 156.254821 171.939473 
L 161.056964 172.020603 
L 165.859107 173.312464 
L 170.66125 173.414723 
L 175.463393 175.761096 
L 180.265536 171.594737 
L 185.067679 179.514497 
L 189.869821 178.642411 
L 194.671964 174.642459 
L 199.474107 176.842745 
L 204.27625 180.344294 
L 209.078393 184.345284 
L 213.880536 181.846261 
L 218.682679 183.420813 
L 223.484821 184.696744 
L 228.286964 185.06104 
L 233.089107 179.765797 
L 237.89125 182.084098 
L 242.693393 185.513872 
L 247.495536 183.903393 
L 252.297679 188.230313 
L 257.099821 189.832522 
L 261.901964 187.66391 
L 266.704107 185.393669 
L 271.50625 187.771509 
L 276.308393 190.050444 
L 281.110536 191.46155 
L 285.912679 187.397548 
L 290.714821 193.375662 
L 295.516964 190.27366 
L 300.319107 192.940691 
L 305.12125 193.877772 
L 309.923393 197.294928 
L 314.725536 197.504967 
L 319.527679 195.600314 
L 324.329821 196.449929 
L 329.131964 201.548714 
L 333.934107 198.164079 
L 338.73625 198.436456 
L 343.538393 194.960414 
L 348.340536 196.921646 
L 353.142679 200.278446 
L 357.944821 202.88663 
L 362.746964 197.707744 
L 367.549107 203.729871 
L 372.35125 197.446485 
L 377.153393 202.389757 
L 381.955536 203.642264 
L 386.757679 201.545025 
L 391.559821 204.438938 
L 396.361964 200.876307 
L 401.164107 202.76239 
L 405.96625 205.752916 
L 410.768393 207.019317 
L 415.570536 205.602011 
L 420.372679 204.851922 
L 425.174821 205.844658 
L 429.976964 204.077945 
L 434.779107 204.931105 
L 435.583638 204.822885 
" clip-path="url(#p910d337798)" style="fill: none; stroke: #81c784; stroke-width: 2; stroke-linecap: square"/>
   </g>
   <g id="line2d_70">
    <path d="M 60.211964 51.137714 
L 65.014107 56.333649 
L 69.81625 60.859774 
L 74.618393 67.400012 
L 79.420536 63.327322 
L 84.222679 63.354622 
L 89.024821 69.901321 
L 93.826964 83.752455 
L 98.629107 86.183004 
L 103.43125 87.088773 
L 108.233393 104.562497 
L 113.035536 112.198317 
L 117.837679 116.133256 
L 122.639821 124.517874 
L 127.441964 128.699718 
L 132.244107 136.682747 
L 137.04625 136.271579 
L 141.848393 146.112376 
L 146.650536 153.495173 
L 151.452679 160.026446 
L 156.254821 158.629604 
L 161.056964 161.889921 
L 165.859107 166.147065 
L 170.66125 165.87501 
L 175.463393 167.81428 
L 180.265536 168.277054 
L 185.067679 167.569244 
L 189.869821 171.035828 
L 194.671964 171.0571 
L 199.474107 173.808591 
L 204.27625 174.257674 
L 209.078393 177.06506 
L 213.880536 177.369793 
L 218.682679 178.053545 
L 223.484821 175.33861 
L 228.286964 175.430848 
L 233.089107 175.878399 
L 237.89125 178.503518 
L 242.693393 179.069626 
L 247.495536 179.568148 
L 252.297679 179.555539 
L 257.099821 179.924972 
L 261.901964 180.663994 
L 266.704107 183.557754 
L 271.50625 185.50006 
L 276.308393 188.640633 
L 281.110536 189.194874 
L 285.912679 189.358267 
L 290.714821 190.790909 
L 295.516964 191.926277 
L 300.319107 193.667956 
L 305.12125 195.007113 
L 309.923393 194.667779 
L 314.725536 194.901021 
L 319.527679 194.871102 
L 324.329821 197.288729 
L 329.131964 197.717455 
L 333.934107 198.784766 
L 338.73625 199.506471 
L 343.538393 201.46097 
L 348.340536 201.98214 
L 353.142679 202.046888 
L 357.944821 202.364197 
L 362.746964 202.900321 
L 367.549107 202.940448 
L 372.35125 203.854407 
L 377.153393 203.873338 
L 381.955536 203.986288 
L 386.757679 204.028658 
L 391.559821 204.305448 
L 396.361964 204.472398 
L 401.164107 204.835798 
L 405.96625 205.746297 
L 410.768393 206.293937 
L 415.570536 206.69336 
L 420.372679 207.419794 
L 425.174821 208.172211 
L 429.976964 208.704081 
L 434.779107 208.852448 
L 435.583638 208.871625 
" clip-path="url(#p910d337798)" style="fill: none; stroke: #039be5; stroke-width: 2; stroke-linecap: square"/>
   </g>
   <g id="line2d_71">
    <path d="M 60.211964 58.122213 
L 65.014107 48.153045 
L 69.81625 44.924838 
L 74.618393 52.218748 
L 79.420536 49.811452 
L 84.222679 58.063666 
L 89.024821 56.023969 
L 93.826964 53.995346 
L 98.629107 55.050111 
L 103.43125 56.30893 
L 108.233393 60.746603 
L 113.035536 64.56983 
L 117.837679 69.469401 
L 122.639821 69.300076 
L 127.441964 66.812597 
L 132.244107 70.739201 
L 137.04625 69.790807 
L 141.848393 70.668858 
L 146.650536 74.107314 
L 151.452679 77.568258 
L 156.254821 78.224668 
L 161.056964 80.164484 
L 165.859107 80.749175 
L 170.66125 81.519312 
L 175.463393 82.968629 
L 180.265536 85.203913 
L 185.067679 85.452175 
L 189.869821 85.937749 
L 194.671964 87.923269 
L 199.474107 89.048588 
L 204.27625 87.704495 
L 209.078393 87.007257 
L 213.880536 84.691621 
L 218.682679 85.761224 
L 223.484821 87.02477 
L 228.286964 87.443668 
L 233.089107 89.684519 
L 237.89125 91.093305 
L 242.693393 92.470494 
L 247.495536 92.782352 
L 252.297679 93.69578 
L 257.099821 94.152215 
L 261.901964 95.687852 
L 266.704107 95.983309 
L 271.50625 96.055189 
L 276.308393 96.086033 
L 281.110536 96.491927 
L 285.912679 98.442223 
L 290.714821 98.295802 
L 295.516964 101.201 
L 300.319107 100.63482 
L 305.12125 100.325208 
L 309.923393 101.254187 
L 314.725536 101.306422 
L 319.527679 101.683401 
L 324.329821 102.392968 
L 329.131964 102.621898 
L 333.934107 102.408017 
L 338.73625 103.13383 
L 343.538393 102.813488 
L 348.340536 102.556184 
L 353.142679 103.307258 
L 357.944821 103.301251 
L 362.746964 103.073299 
L 367.549107 103.294769 
L 372.35125 103.867171 
L 377.153393 105.876104 
L 381.955536 107.103828 
L 386.757679 107.034538 
L 391.559821 106.854566 
L 396.361964 108.937954 
L 401.164107 109.504528 
L 405.96625 110.279271 
L 410.768393 111.73978 
L 415.570536 112.215918 
L 420.372679 112.858652 
L 425.174821 113.455527 
L 429.976964 114.251801 
L 434.779107 114.402858 
L 435.583638 114.429913 
" clip-path="url(#p910d337798)" style="fill: none; stroke: #6b4e9b; stroke-width: 2; stroke-linecap: square"/>
   </g>
   <g id="line2d_72">
    <path d="M 60.211964 105.666918 
L 65.014107 123.388375 
L 69.81625 132.395289 
L 74.618393 139.82711 
L 79.420536 147.839429 
L 84.222679 155.754869 
L 89.024821 158.835691 
L 93.826964 165.101549 
L 98.629107 169.064982 
L 103.43125 173.465182 
L 108.233393 178.771258 
L 113.035536 181.267992 
L 117.837679 182.088871 
L 122.639821 183.404692 
L 127.441964 184.033164 
L 132.244107 185.88203 
L 137.04625 186.694627 
L 141.848393 188.386226 
L 146.650536 186.656978 
L 151.452679 186.1201 
L 156.254821 186.009346 
L 161.056964 186.68702 
L 165.859107 185.839005 
L 170.66125 185.846337 
L 175.463393 186.361839 
L 180.265536 187.047826 
L 185.067679 187.137279 
L 189.869821 186.866672 
L 194.671964 187.865595 
L 199.474107 187.948301 
L 204.27625 189.397631 
L 209.078393 190.578263 
L 213.880536 191.1646 
L 218.682679 192.755999 
L 223.484821 194.035456 
L 228.286964 193.924579 
L 233.089107 194.362341 
L 237.89125 195.022434 
L 242.693393 194.977516 
L 247.495536 196.099346 
L 252.297679 195.47077 
L 257.099821 196.519213 
L 261.901964 196.779566 
L 266.704107 196.694153 
L 271.50625 196.769328 
L 276.308393 196.77227 
L 281.110536 198.062325 
L 285.912679 197.918063 
L 290.714821 199.526677 
L 295.516964 201.053684 
L 300.319107 201.918841 
L 305.12125 201.806352 
L 309.923393 201.821085 
L 314.725536 201.862429 
L 319.527679 202.16546 
L 324.329821 202.217593 
L 329.131964 202.203108 
L 333.934107 202.754682 
L 338.73625 202.74991 
L 343.538393 202.935725 
L 348.340536 203.144165 
L 353.142679 204.770699 
L 357.944821 205.070258 
L 362.746964 204.919704 
L 367.549107 205.222531 
L 372.35125 205.217129 
L 377.153393 204.990524 
L 381.955536 205.323484 
L 386.757679 205.515041 
L 391.559821 206.697625 
L 396.361964 207.223719 
L 401.164107 207.279776 
L 405.96625 207.485102 
L 410.768393 207.270354 
L 415.570536 207.640842 
L 420.372679 207.992046 
L 425.174821 207.954328 
L 429.976964 208.654843 
L 434.779107 208.669271 
L 435.583638 208.764366 
" clip-path="url(#p910d337798)" style="fill: none; stroke: #f44336; stroke-width: 2; stroke-linecap: square"/>
   </g>
  </g>
 </g>
 <defs>
  <clipPath id="p910d337798">
   <rect x="58.61125" y="13.642031" width="358.56" height="232.2"/>
  </clipPath>
 </defs>
</svg>
